<svg width="17" height="16" viewBox="0 0 17 16" fill="none" xmlns="http://www.w3.org/2000/svg">
<path d="M11.7875 9.93746L11.4839 10.2393C11.4839 10.2393 10.7621 10.957 8.79215 8.99813C6.82216 7.03933 7.54388 6.32171 7.54388 6.32171L7.73508 6.13158C8.20615 5.66322 8.25055 4.91127 7.83955 4.36231L6.99892 3.23938C6.49027 2.55994 5.50739 2.47019 4.92438 3.04988L3.87798 4.09034C3.5889 4.37778 3.39518 4.75039 3.41867 5.16374C3.47877 6.22121 3.95722 8.49646 6.62699 11.1511C9.45815 13.9661 12.1146 14.078 13.2009 13.9767C13.5445 13.9447 13.8433 13.7697 14.0841 13.5303L15.0312 12.5887C15.6705 11.953 15.4902 10.8633 14.6723 10.4187L13.3986 9.72626C12.8615 9.43433 12.2073 9.52006 11.7875 9.93746Z" fill="white"/>
</svg>
