<svg width="16" height="17" viewBox="0 0 16 17" fill="none" xmlns="http://www.w3.org/2000/svg">
<path d="M13.1666 5.03778L12.9822 5.09778L12 5.18445L11.7177 5.6289L11.5155 5.56445L10.7177 4.85556L10.6022 4.48667L10.4444 4.09112L9.94885 3.64667L9.3644 3.53334L9.35107 3.80001L9.9244 4.36001L10.2044 4.6889L9.88885 4.85556L9.63329 4.78001L9.24885 4.61778V4.3089L8.75996 4.10001L8.59329 4.83112L8.0844 4.94445L8.13551 5.35334L8.80218 5.48001L8.91774 4.8289L9.4644 4.91112L9.71774 5.06001H10.1266L10.4 5.61112L11.1422 6.36223L11.0866 6.65556L10.4888 6.58001L9.45774 7.10001L8.71551 7.9889L8.61996 8.38445H8.35107L7.85551 8.16223L7.37329 8.38445L7.49329 8.89334L7.70218 8.65112H8.07329L8.04662 9.09556L8.35329 9.18445L8.66662 9.53778L9.15551 9.3889L9.72662 9.47779L10.3933 9.65556L10.7222 9.69556L11.2822 10.3311L12.3644 10.9667L11.6644 12.3L10.9266 12.6422L10.6466 13.4067L9.57774 14.12L9.4644 14.5311C10.4355 14.2939 11.3352 13.8261 12.0872 13.1675C12.8392 12.5089 13.4215 11.6787 13.7847 10.7474C14.1479 9.81603 14.2814 8.81088 14.1738 7.81701C14.0662 6.82315 13.7207 5.86984 13.1666 5.03778Z" />
<path d="M8.71555 11.7511L8.27111 10.9111L8.67777 10.0556L8.26222 9.93111L7.79555 9.46222L6.76 9.24L6.41777 8.5V8.92666H6.26666L5.37777 7.71777V6.72222L4.72444 5.66L3.68666 5.84444H2.98444L2.63111 5.62222L3.07555 5.26666L2.63111 5.36888C2.08084 6.31385 1.78932 7.38713 1.78592 8.48063C1.78251 9.57412 2.06734 10.6492 2.61172 11.5976C3.15609 12.5459 3.94077 13.3341 4.88673 13.8827C5.83268 14.4312 6.9065 14.7208 8 14.7222C8.26088 14.7195 8.52136 14.701 8.78 14.6667L8.71555 13.9133C8.71555 13.9133 9.00222 12.8022 9.00222 12.7578C9.00222 12.7133 8.71555 11.7511 8.71555 11.7511Z" />
<path d="M4.09111 4.27777L5.20222 4.12222L5.71111 3.84444L6.28444 4.00888L7.2 3.95777L7.51555 3.46444L7.97111 3.53999L9.08222 3.43555L9.38888 3.09777L9.83333 2.81111L10.4422 2.90222L10.6644 2.86888C9.41524 2.27673 8.00401 2.11889 6.65486 2.42045C5.30571 2.72201 4.09598 3.46566 3.21777 4.53333L4.09111 4.27777ZM8.26222 2.89555L8.88888 2.54666L9.29777 2.78222L8.70666 3.22666L8.14222 3.28444L7.88888 3.11999L8.26222 2.89555ZM6.38 2.94444L6.66666 3.06444L7.02888 2.94444L7.22888 3.29111L6.38 3.51333L5.97333 3.27777C5.97333 3.27777 6.37111 3.02222 6.38 2.94444Z" />
</svg>
