<svg width="24" height="24" viewBox="0 0 24 24" fill="none" xmlns="http://www.w3.org/2000/svg">
<path d="M17.375 9.75H16.25V7.5C16.25 5.01487 14.2351 3 11.75 3C9.26487 3 7.25 5.01487 7.25 7.5V9.75H6.125C5.50316 9.75 5 10.2532 5 10.875V19.875C5 20.4968 5.50316 21 6.125 21H17.375C17.9968 21 18.5 20.4968 18.5 19.875V10.875C18.5 10.2532 17.9968 9.75 17.375 9.75ZM11.75 16.5C11.1282 16.5 10.625 15.9968 10.625 15.375C10.625 14.7532 11.1282 14.25 11.75 14.25C12.3718 14.25 12.875 14.7532 12.875 15.375C12.875 15.9968 12.3718 16.5 11.75 16.5ZM14 9.75H9.5V7.5C9.5 6.25744 10.5074 5.25 11.75 5.25C12.9926 5.25 14 6.25744 14 7.5V9.75Z" />
</svg>
