<svg width="24" height="24" viewBox="0 0 24 24" fill="none" xmlns="http://www.w3.org/2000/svg">
<g clip-path="url(#clip0_7_1470)">
<path d="M19 6.22441C19 5.91514 18.8771 5.61854 18.6585 5.39985C18.4398 5.18116 18.1432 5.05831 17.8339 5.05831L8.50507 5C8.1958 5 7.8992 5.12286 7.68051 5.34154C7.46183 5.56023 7.33897 5.85683 7.33897 6.1661C7.33897 6.47537 7.46183 6.77198 7.68051 6.99066C7.8992 7.20935 8.1958 7.33221 8.50507 7.33221H14.9886L5.34493 16.9992C5.23563 17.1076 5.14888 17.2366 5.08968 17.3787C5.03048 17.5208 5 17.6732 5 17.8271C5 17.9811 5.03048 18.1335 5.08968 18.2756C5.14888 18.4177 5.23563 18.5467 5.34493 18.6551C5.45334 18.7644 5.58231 18.8511 5.72441 18.9103C5.86651 18.9695 6.01893 19 6.17286 19C6.3268 19 6.47922 18.9695 6.62132 18.9103C6.76342 18.8511 6.89239 18.7644 7.0008 18.6551L16.6678 8.98807V15.4949C16.6678 15.8042 16.7906 16.1008 17.0093 16.3195C17.228 16.5382 17.5246 16.661 17.8339 16.661C18.1432 16.661 18.4398 16.5382 18.6585 16.3195C18.8771 16.1008 19 15.8042 19 15.4949V6.22441Z" />
</g>
<defs>
<clipPath id="clip0_7_1470">
<rect width="24" height="24" />
</clipPath>
</defs>
</svg>
