<svg width="24" height="24" viewBox="0 0 24 24" fill="none" xmlns="http://www.w3.org/2000/svg">
<path d="M4.18002 20.0167H19.82C19.9204 20.0181 20.02 19.998 20.112 19.9578C20.204 19.9175 20.2863 19.858 20.3534 19.7833C20.4077 19.7227 20.4485 19.6512 20.4732 19.5737C20.4979 19.4961 20.5059 19.4142 20.4967 19.3333C20.3205 17.9631 19.8169 16.6555 19.0284 15.5212C18.2398 14.3869 17.1897 13.4592 15.9667 12.8167C15.4464 13.3387 14.8282 13.753 14.1475 14.0356C13.4668 14.3183 12.7371 14.4637 12 14.4637C11.263 14.4637 10.5332 14.3183 9.8525 14.0356C9.17181 13.753 8.55362 13.3387 8.03336 12.8167C6.81039 13.4592 5.7602 14.3869 4.97168 15.5212C4.18316 16.6555 3.67951 17.9631 3.50336 19.3333C3.49311 19.4158 3.50059 19.4995 3.52531 19.5788C3.55003 19.6582 3.59141 19.7313 3.64669 19.7933C3.71468 19.8662 3.7974 19.9238 3.88934 19.9623C3.98129 20.0008 4.08038 20.0194 4.18002 20.0167Z" />
<path d="M8.47664 12.2C8.56664 12.2967 8.6633 12.3867 8.75997 12.4733C9.64878 13.2735 10.8024 13.7163 11.9983 13.7163C13.1942 13.7163 14.3478 13.2735 15.2366 12.4733C15.337 12.3874 15.4327 12.2962 15.5233 12.2C15.6133 12.1033 15.7033 12.0067 15.7866 11.9033C16.3636 11.1886 16.7266 10.3252 16.8335 9.4129C16.9405 8.50059 16.7871 7.57664 16.391 6.74786C15.9949 5.91908 15.3724 5.21931 14.5954 4.72944C13.8183 4.23957 12.9185 3.97961 12 3.97961C11.0814 3.97961 10.1816 4.23957 9.40458 4.72944C8.62755 5.21931 8.00502 5.91908 7.60895 6.74786C7.21288 7.57664 7.05946 8.50059 7.1664 9.4129C7.27335 10.3252 7.6363 11.1886 8.2133 11.9033C8.29664 12 8.38664 12.1033 8.47664 12.2Z" />
</svg>
