<svg width="24" height="24" viewBox="0 0 24 24" fill="none" xmlns="http://www.w3.org/2000/svg">
<path d="M16.5562 14.9062L16.1007 15.359C16.1007 15.359 15.0181 16.4355 12.0631 13.4972C9.10812 10.559 10.1907 9.48257 10.1907 9.48257L10.4775 9.19738C11.1841 8.49484 11.2507 7.36691 10.6342 6.54348L9.37326 4.85908C8.61028 3.83992 7.13596 3.70529 6.26145 4.57483L4.69185 6.13552C4.25823 6.56668 3.96765 7.12559 4.00289 7.74561C4.09304 9.33182 4.81071 12.7447 8.81536 16.7266C13.0621 20.9492 17.0468 21.117 18.6763 20.9651C19.1917 20.9171 19.6399 20.6546 20.0011 20.2954L21.4217 18.883C22.3806 17.9295 22.1102 16.2949 20.8833 15.628L18.9728 14.5894C18.1672 14.1515 17.1858 14.2801 16.5562 14.9062Z" fill="#1E6A8A"/>
</svg>
