<svg width="24" height="24" viewBox="0 0 24 24" fill="none" xmlns="http://www.w3.org/2000/svg">
<path d="M21.8106 20.9121L16.6469 15.8309C17.9991 14.3617 18.8299 12.4187 18.8299 10.2807C18.8293 5.70699 15.0621 1.99982 10.4146 1.99982C5.7672 1.99982 2 5.70699 2 10.2807C2 14.8543 5.7672 18.5615 10.4146 18.5615C12.4227 18.5615 14.2644 17.867 15.711 16.7123L20.8948 21.8136C21.1474 22.0624 21.5575 22.0624 21.81 21.8136C22.0632 21.5648 22.0632 21.1609 21.8106 20.9121ZM10.4146 17.2875C6.4824 17.2875 3.29471 14.1504 3.29471 10.2807C3.29471 6.41091 6.4824 3.27387 10.4146 3.27387C14.3469 3.27387 17.5346 6.41091 17.5346 10.2807C17.5346 14.1504 14.3469 17.2875 10.4146 17.2875Z" />
</svg>
